<?xml version="1.0" encoding="UTF-8" standalone="no"?>
<!DOCTYPE svg PUBLIC "-//W3C//DTD SVG 1.1//EN"
 "http://www.w3.org/Graphics/SVG/1.1/DTD/svg11.dtd">
<!-- Generated by graphviz version 14.1.1 (20251213.1925)
 -->
<!-- Title: ARGP_FUNC Pages: 1 -->
<svg width="1191pt" height="502pt"
 viewBox="0.00 0.00 1191.00 502.00" xmlns="http://www.w3.org/2000/svg" xmlns:xlink="http://www.w3.org/1999/xlink">
<g id="graph0" class="graph" transform="scale(1 1) rotate(0) translate(4 497.53)">
<title>ARGP_FUNC</title>
<polygon fill="white" stroke="none" points="-4,4 -4,-497.53 1186.61,-497.53 1186.61,4 -4,4"/>
<!-- START -->
<g id="node1" class="node">
<title>START</title>
<ellipse fill="lightgray" stroke="black" cx="56.83" cy="-289.53" rx="31.95" ry="18"/>
<text xml:space="preserve" text-anchor="middle" x="56.83" y="-285.83" font-family="Helvetica,sans-Serif" font-size="11.00">START</text>
</g>
<!-- NEXT -->
<g id="node2" class="node">
<title>NEXT</title>
<ellipse fill="lightgray" stroke="black" cx="202.2" cy="-225.53" rx="28.68" ry="18"/>
<text xml:space="preserve" text-anchor="middle" x="202.2" y="-221.83" font-family="Helvetica,sans-Serif" font-size="11.00">NEXT</text>
</g>
<!-- START&#45;&gt;NEXT -->
<g id="edge1" class="edge">
<title>START&#45;&gt;NEXT</title>
<path fill="none" stroke="black" d="M82.47,-278.52C106.12,-267.97 141.98,-251.96 168.11,-240.3"/>
<polygon fill="black" stroke="black" points="169.21,-243.64 176.91,-236.37 166.35,-237.25 169.21,-243.64"/>
<text xml:space="preserve" text-anchor="middle" x="131.15" y="-270.05" font-family="Helvetica,sans-Serif" font-size="11.00">initialize</text>
</g>
<!-- ERR_NULL_PTR -->
<g id="node4" class="node">
<title>ERR_NULL_PTR</title>
<ellipse fill="hotpink" stroke="black" cx="1015.24" cy="-475.53" rx="64.21" ry="18"/>
<text xml:space="preserve" text-anchor="middle" x="1015.24" y="-471.83" font-family="Helvetica,sans-Serif" font-size="11.00">ERR_NULL_PTR</text>
</g>
<!-- START&#45;&gt;ERR_NULL_PTR -->
<g id="edge2" class="edge">
<title>START&#45;&gt;ERR_NULL_PTR</title>
<path fill="none" stroke="black" d="M62.39,-307.7C75.35,-354.5 117.01,-475.53 201.2,-475.53 201.2,-475.53 201.2,-475.53 782.75,-475.53 835.07,-475.53 894.03,-475.53 939.35,-475.53"/>
<polygon fill="black" stroke="black" points="939.35,-479.03 949.35,-475.53 939.35,-472.03 939.35,-479.03"/>
<text xml:space="preserve" text-anchor="middle" x="437.5" y="-478.58" font-family="Helvetica,sans-Serif" font-size="11.00">pointer == NULL</text>
</g>
<!-- NEXT&#45;&gt;START -->
<g id="edge3" class="edge">
<title>NEXT&#45;&gt;START</title>
<path fill="none" stroke="black" d="M193.05,-242.87C185.47,-256.82 172.75,-275.53 155.53,-284.53 138.61,-293.37 117.72,-295.41 99.6,-294.92"/>
<polygon fill="black" stroke="black" points="99.86,-291.43 89.68,-294.36 99.46,-298.42 99.86,-291.43"/>
<text xml:space="preserve" text-anchor="middle" x="131.15" y="-298.02" font-family="Helvetica,sans-Serif" font-size="11.00">i &lt; lastOpt</text>
</g>
<!-- NEXT&#45;&gt;NEXT -->
<g id="edge5" class="edge">
<title>NEXT:w&#45;&gt;NEXT:w</title>
<path fill="none" stroke="black" d="M173.26,-225.53C161.68,-234.53 138,-234.53 138,-225.53 138,-218.71 151.6,-217.05 163.23,-220.57"/>
<polygon fill="black" stroke="black" points="161.38,-223.56 171.9,-224.86 164.48,-217.29 161.38,-223.56"/>
<text xml:space="preserve" text-anchor="start" x="24.75" y="-232.58" font-family="Helvetica,sans-Serif" font-size="11.00">operand (reorder):</text>
<text xml:space="preserve" text-anchor="start" x="0" y="-221.58" font-family="Helvetica,sans-Serif" font-size="11.00">!POSIXLY_CORRECT </text>
<text xml:space="preserve" text-anchor="start" x="114" y="-221.58" font-family="Helvetica,sans-Serif" font-size="11.00" fill="blue">AND</text>
<text xml:space="preserve" text-anchor="start" x="40.5" y="-210.58" font-family="Helvetica,sans-Serif" font-size="11.00">!ARG_ONE</text>
</g>
<!-- ERR_NON_OPT -->
<g id="node3" class="node">
<title>ERR_NON_OPT</title>
<ellipse fill="hotpink" stroke="black" cx="1015.24" cy="-267.53" rx="61.87" ry="18"/>
<text xml:space="preserve" text-anchor="middle" x="1015.24" y="-263.83" font-family="Helvetica,sans-Serif" font-size="11.00">ERR_NON_OPT</text>
</g>
<!-- NEXT&#45;&gt;ERR_NON_OPT -->
<g id="edge11" class="edge">
<title>NEXT&#45;&gt;ERR_NON_OPT</title>
<path fill="none" stroke="black" d="M228.63,-233.1C235.17,-234.8 242.24,-236.43 248.88,-237.53 304.59,-246.74 319.23,-243.6 375.63,-246.53 580.94,-257.19 823.67,-263.42 942.05,-266.05"/>
<polygon fill="black" stroke="black" points="941.86,-269.54 951.94,-266.26 942.02,-262.54 941.86,-269.54"/>
<text xml:space="preserve" text-anchor="start" x="592.38" y="-272.24" font-family="Helvetica,sans-Serif" font-size="11.00">&quot;&#45;&#45;&quot; </text>
<text xml:space="preserve" text-anchor="start" x="610.38" y="-272.24" font-family="Helvetica,sans-Serif" font-size="11.00" fill="blue">AND</text>
<text xml:space="preserve" text-anchor="start" x="517.38" y="-261.24" font-family="Helvetica,sans-Serif" font-size="11.00">(POSIXLY_CORRECT </text>
<text xml:space="preserve" text-anchor="start" x="632.13" y="-261.24" font-family="Helvetica,sans-Serif" font-size="11.00" fill="blue">OR </text>
<text xml:space="preserve" text-anchor="start" x="651.63" y="-261.24" font-family="Helvetica,sans-Serif" font-size="11.00">ARG_ONE)</text>
</g>
<!-- END -->
<g id="node8" class="node">
<title>END</title>
<ellipse fill="lightgray" stroke="black" cx="1155.61" cy="-290.53" rx="27" ry="18"/>
<text xml:space="preserve" text-anchor="middle" x="1155.61" y="-286.83" font-family="Helvetica,sans-Serif" font-size="11.00">END</text>
</g>
<!-- NEXT&#45;&gt;END -->
<g id="edge4" class="edge">
<title>NEXT&#45;&gt;END</title>
<path fill="none" stroke="black" d="M202.82,-243.87C203.17,-277.13 208.94,-347.45 248.88,-385.53 310.87,-444.63 350.85,-429.53 436.5,-429.53 436.5,-429.53 436.5,-429.53 1016.24,-429.53 1062.52,-429.53 1077.93,-418.29 1110.61,-385.53 1128.82,-367.26 1140.37,-340.05 1147.03,-319.42"/>
<polygon fill="black" stroke="black" points="1150.37,-320.48 1149.89,-309.9 1143.67,-318.47 1150.37,-320.48"/>
<text xml:space="preserve" text-anchor="middle" x="781.75" y="-432.58" font-family="Helvetica,sans-Serif" font-size="11.00">i &gt;= argc</text>
</g>
<!-- NEXT&#45;&gt;END -->
<g id="edge6" class="edge">
<title>NEXT&#45;&gt;END</title>
<path fill="none" stroke="black" d="M206.24,-243.6C211.1,-266.64 222.84,-306.03 248.88,-327.53 314.93,-382.05 350.85,-371.53 436.5,-371.53 436.5,-371.53 436.5,-371.53 1016.24,-371.53 1062.3,-371.53 1106.63,-337.68 1132.22,-313.74"/>
<polygon fill="black" stroke="black" points="1134.63,-316.29 1139.38,-306.81 1129.76,-311.26 1134.63,-316.29"/>
<text xml:space="preserve" text-anchor="start" x="727.38" y="-384.08" font-family="Helvetica,sans-Serif" font-size="11.00">reordering reaches &quot;&#45;&#45;&quot;</text>
<text xml:space="preserve" text-anchor="start" x="733.38" y="-373.08" font-family="Helvetica,sans-Serif" font-size="11.00" fill="blue">OR </text>
<text xml:space="preserve" text-anchor="start" x="752.88" y="-373.08" font-family="Helvetica,sans-Serif" font-size="11.00">no more options</text>
</g>
<!-- NEXT&#45;&gt;END -->
<g id="edge7" class="edge">
<title>NEXT&#45;&gt;END</title>
<path fill="none" stroke="black" d="M221.61,-239.33C229.68,-244.91 239.44,-251.08 248.88,-255.53 327.83,-292.74 349.22,-313.53 436.5,-313.53 436.5,-313.53 436.5,-313.53 1016.24,-313.53 1051.61,-313.53 1091.39,-306.12 1119.18,-299.72"/>
<polygon fill="black" stroke="black" points="1119.93,-303.14 1128.84,-297.41 1118.3,-296.33 1119.93,-303.14"/>
<text xml:space="preserve" text-anchor="start" x="748.38" y="-326.08" font-family="Helvetica,sans-Serif" font-size="11.00">operand </text>
<text xml:space="preserve" text-anchor="start" x="791.13" y="-326.08" font-family="Helvetica,sans-Serif" font-size="11.00" fill="blue">AND</text>
<text xml:space="preserve" text-anchor="start" x="727.75" y="-315.08" font-family="Helvetica,sans-Serif" font-size="11.00">POSIXLY_CORRECT</text>
</g>
<!-- ARG -->
<g id="node9" class="node">
<title>ARG</title>
<ellipse fill="lightgray" stroke="black" cx="781.75" cy="-175.53" rx="27" ry="18"/>
<text xml:space="preserve" text-anchor="middle" x="781.75" y="-171.83" font-family="Helvetica,sans-Serif" font-size="11.00">ARG</text>
</g>
<!-- NEXT&#45;&gt;ARG -->
<g id="edge8" class="edge">
<title>NEXT&#45;&gt;ARG</title>
<path fill="none" stroke="black" d="M228.17,-217.23C234.85,-215.19 242.1,-213.13 248.88,-211.53 304.47,-198.35 318.78,-195.84 375.63,-190.03 510.59,-176.23 672.01,-174.99 743.52,-175.22"/>
<polygon fill="black" stroke="black" points="743.07,-178.71 753.09,-175.26 743.1,-171.71 743.07,-178.71"/>
<text xml:space="preserve" text-anchor="start" x="375.63" y="-194.08" font-family="Helvetica,sans-Serif" font-size="11.00">operand </text>
<text xml:space="preserve" text-anchor="start" x="418.38" y="-194.08" font-family="Helvetica,sans-Serif" font-size="11.00" fill="blue">AND </text>
<text xml:space="preserve" text-anchor="start" x="445.38" y="-194.08" font-family="Helvetica,sans-Serif" font-size="11.00">ARG_ONE</text>
</g>
<!-- SHORT -->
<g id="node10" class="node">
<title>SHORT</title>
<ellipse fill="lightgray" stroke="black" cx="437.5" cy="-121.53" rx="33.82" ry="18"/>
<text xml:space="preserve" text-anchor="middle" x="437.5" y="-117.83" font-family="Helvetica,sans-Serif" font-size="11.00">SHORT</text>
</g>
<!-- NEXT&#45;&gt;SHORT -->
<g id="edge9" class="edge">
<title>NEXT&#45;&gt;SHORT</title>
<path fill="none" stroke="black" d="M210.64,-208.07C218.07,-192.82 230.96,-171.33 248.88,-159.53 251.94,-157.51 339.91,-140.22 394.3,-129.67"/>
<polygon fill="black" stroke="black" points="394.71,-133.15 403.86,-127.82 393.38,-126.28 394.71,-133.15"/>
<text xml:space="preserve" text-anchor="start" x="290.13" y="-172.08" font-family="Helvetica,sans-Serif" font-size="11.00">&#45;[^&#45;].*</text>
<text xml:space="preserve" text-anchor="start" x="270.63" y="-161.08" font-family="Helvetica,sans-Serif" font-size="11.00" fill="blue">AND </text>
<text xml:space="preserve" text-anchor="start" x="297.63" y="-161.08" font-family="Helvetica,sans-Serif" font-size="11.00">SHORT</text>
</g>
<!-- LONG -->
<g id="node11" class="node">
<title>LONG</title>
<ellipse fill="lightgray" stroke="black" cx="437.5" cy="-45.53" rx="29.14" ry="18"/>
<text xml:space="preserve" text-anchor="middle" x="437.5" y="-41.83" font-family="Helvetica,sans-Serif" font-size="11.00">LONG</text>
</g>
<!-- NEXT&#45;&gt;LONG -->
<g id="edge10" class="edge">
<title>NEXT&#45;&gt;LONG</title>
<path fill="none" stroke="black" d="M204.9,-207.37C209.27,-164.91 222.5,-61.18 248.88,-40.53 292.26,-6.55 360.19,-19.64 401.32,-32.44"/>
<polygon fill="black" stroke="black" points="400.13,-35.74 410.72,-35.54 402.32,-29.09 400.13,-35.74"/>
<text xml:space="preserve" text-anchor="start" x="253.75" y="-53.08" font-family="Helvetica,sans-Serif" font-size="11.00">LONG </text>
<text xml:space="preserve" text-anchor="start" x="287.5" y="-53.08" font-family="Helvetica,sans-Serif" font-size="11.00" fill="blue">AND </text>
<text xml:space="preserve" text-anchor="start" x="314.5" y="-53.08" font-family="Helvetica,sans-Serif" font-size="11.00">(&#45;&#45;.* </text>
<text xml:space="preserve" text-anchor="start" x="336.25" y="-53.08" font-family="Helvetica,sans-Serif" font-size="11.00" fill="blue">OR</text>
<text xml:space="preserve" text-anchor="start" x="248.88" y="-42.08" font-family="Helvetica,sans-Serif" font-size="11.00">(&#45;[^&#45;].* </text>
<text xml:space="preserve" text-anchor="start" x="281.88" y="-42.08" font-family="Helvetica,sans-Serif" font-size="11.00" fill="blue">AND </text>
<text xml:space="preserve" text-anchor="start" x="308.88" y="-42.08" font-family="Helvetica,sans-Serif" font-size="11.00">!SHORT))</text>
</g>
<!-- ERR_NON_OPT&#45;&gt;END -->
<g id="edge22" class="edge">
<title>ERR_NON_OPT&#45;&gt;END</title>
<path fill="none" stroke="black" d="M1069.74,-276.42C1085.82,-279.09 1103.09,-281.96 1117.83,-284.41"/>
<polygon fill="black" stroke="black" points="1117.11,-287.84 1127.54,-286.03 1118.25,-280.94 1117.11,-287.84"/>
</g>
<!-- ERR_NULL_PTR&#45;&gt;END -->
<g id="edge23" class="edge">
<title>ERR_NULL_PTR&#45;&gt;END</title>
<path fill="none" stroke="black" d="M1071.24,-466.5C1085.66,-461.76 1100.1,-454.54 1110.61,-443.53 1142.86,-409.72 1151.7,-353.83 1153.99,-319.78"/>
<polygon fill="black" stroke="black" points="1157.46,-320.39 1154.47,-310.23 1150.47,-320.03 1157.46,-320.39"/>
</g>
<!-- ERR_INVALID_OPT -->
<g id="node5" class="node">
<title>ERR_INVALID_OPT</title>
<ellipse fill="hotpink" stroke="black" cx="1015.24" cy="-113.53" rx="73.09" ry="18"/>
<text xml:space="preserve" text-anchor="middle" x="1015.24" y="-109.83" font-family="Helvetica,sans-Serif" font-size="11.00">ERR_INVALID_OPT</text>
</g>
<!-- ERR_INVALID_OPT&#45;&gt;END -->
<g id="edge24" class="edge">
<title>ERR_INVALID_OPT&#45;&gt;END</title>
<path fill="none" stroke="black" d="M1046.03,-130.2C1061.07,-139.69 1078.79,-152.65 1091.61,-167.53 1116.13,-195.99 1134.23,-235.67 1144.58,-262.18"/>
<polygon fill="black" stroke="black" points="1141.2,-263.13 1148.01,-271.25 1147.75,-260.66 1141.2,-263.13"/>
</g>
<!-- ERR_MISSING_ARG -->
<g id="node6" class="node">
<title>ERR_MISSING_ARG</title>
<ellipse fill="hotpink" stroke="black" cx="1015.24" cy="-194.53" rx="76.36" ry="18"/>
<text xml:space="preserve" text-anchor="middle" x="1015.24" y="-190.83" font-family="Helvetica,sans-Serif" font-size="11.00">ERR_MISSING_ARG</text>
</g>
<!-- ERR_MISSING_ARG&#45;&gt;END -->
<g id="edge25" class="edge">
<title>ERR_MISSING_ARG&#45;&gt;END</title>
<path fill="none" stroke="black" d="M1045.76,-211.4C1059.89,-219.77 1076.9,-230.26 1091.61,-240.53 1104.31,-249.39 1117.83,-259.96 1129.08,-269.1"/>
<polygon fill="black" stroke="black" points="1126.81,-271.76 1136.76,-275.4 1131.25,-266.35 1126.81,-271.76"/>
</g>
<!-- ERR_AMBIGUOUS -->
<g id="node7" class="node">
<title>ERR_AMBIGUOUS</title>
<ellipse fill="hotpink" stroke="black" cx="1015.24" cy="-24.53" rx="70.75" ry="18"/>
<text xml:space="preserve" text-anchor="middle" x="1015.24" y="-20.83" font-family="Helvetica,sans-Serif" font-size="11.00">ERR_AMBIGUOUS</text>
</g>
<!-- ERR_AMBIGUOUS&#45;&gt;END -->
<g id="edge26" class="edge">
<title>ERR_AMBIGUOUS&#45;&gt;END</title>
<path fill="none" stroke="black" d="M1043.75,-41.25C1059.79,-52.29 1079.24,-68.1 1091.61,-86.53 1128.54,-141.58 1144.62,-219.27 1150.95,-261.11"/>
<polygon fill="black" stroke="black" points="1147.47,-261.48 1152.34,-270.89 1154.4,-260.5 1147.47,-261.48"/>
</g>
<!-- ARG&#45;&gt;NEXT -->
<g id="edge13" class="edge">
<title>ARG&#45;&gt;NEXT</title>
<path fill="none" stroke="black" stroke-dasharray="5,2" d="M756.15,-182.02C742.47,-185.38 725.09,-189.25 709.38,-191.53 536.81,-216.51 328.42,-223.19 242.83,-224.93"/>
<polygon fill="black" stroke="black" points="242.79,-221.43 232.86,-225.12 242.92,-228.43 242.79,-221.43"/>
<text xml:space="preserve" text-anchor="start" x="407.5" y="-232.89" font-family="Helvetica,sans-Serif" font-size="11.00">arg != NULL</text>
<text xml:space="preserve" text-anchor="start" x="409" y="-221.89" font-family="Helvetica,sans-Serif" font-size="11.00" fill="blue">OR </text>
<text xml:space="preserve" text-anchor="start" x="428.5" y="-221.89" font-family="Helvetica,sans-Serif" font-size="11.00">optional</text>
</g>
<!-- ARG&#45;&gt;ERR_MISSING_ARG -->
<g id="edge12" class="edge">
<title>ARG&#45;&gt;ERR_MISSING_ARG</title>
<path fill="none" stroke="black" d="M808.86,-177.67C838.49,-180.1 888.32,-184.19 931.47,-187.73"/>
<polygon fill="black" stroke="black" points="931.1,-191.21 941.36,-188.54 931.68,-184.24 931.1,-191.21"/>
<text xml:space="preserve" text-anchor="start" x="855.63" y="-199.28" font-family="Helvetica,sans-Serif" font-size="11.00">arg == NULL</text>
<text xml:space="preserve" text-anchor="start" x="854.13" y="-188.28" font-family="Helvetica,sans-Serif" font-size="11.00" fill="blue">AND </text>
<text xml:space="preserve" text-anchor="start" x="881.13" y="-188.28" font-family="Helvetica,sans-Serif" font-size="11.00">required</text>
</g>
<!-- SHORT&#45;&gt;NEXT -->
<g id="edge16" class="edge">
<title>SHORT&#45;&gt;NEXT</title>
<path fill="none" stroke="black" stroke-dasharray="5,2" d="M408.03,-112.24C368.72,-101.28 297.21,-88.29 248.88,-120.03 223.39,-136.77 212.05,-171.11 207.06,-196.08"/>
<polygon fill="black" stroke="black" points="203.66,-195.18 205.39,-205.64 210.56,-196.39 203.66,-195.18"/>
<text xml:space="preserve" text-anchor="middle" x="303.25" y="-123.08" font-family="Helvetica,sans-Serif" font-size="11.00">no argument</text>
</g>
<!-- SHORT&#45;&gt;ERR_INVALID_OPT -->
<g id="edge17" class="edge">
<title>SHORT&#45;&gt;ERR_INVALID_OPT</title>
<path fill="none" stroke="black" d="M471.52,-121.07C559.54,-119.84 801.85,-116.48 930.87,-114.68"/>
<polygon fill="black" stroke="black" points="930.77,-118.19 940.72,-114.55 930.67,-111.19 930.77,-118.19"/>
<text xml:space="preserve" text-anchor="middle" x="781.75" y="-120.44" font-family="Helvetica,sans-Serif" font-size="11.00">undefined</text>
</g>
<!-- SHORT&#45;&gt;ARG -->
<g id="edge15" class="edge">
<title>SHORT&#45;&gt;ARG</title>
<path fill="none" stroke="black" d="M471.58,-123.64C533.58,-127.79 665.01,-137.51 709.38,-148.03 722.53,-151.14 736.52,-156.13 748.59,-161.01"/>
<polygon fill="black" stroke="black" points="747.08,-164.17 757.66,-164.82 749.79,-157.72 747.08,-164.17"/>
<text xml:space="preserve" text-anchor="middle" x="613.38" y="-151.08" font-family="Helvetica,sans-Serif" font-size="11.00"> &#160;&#160;</text>
<text xml:space="preserve" text-anchor="start" x="498.54" y="-145.47" font-family="Helvetica,sans-Serif" font-size="11.00">optional</text>
<text xml:space="preserve" text-anchor="start" x="487.66" y="-134.47" font-family="Helvetica,sans-Serif" font-size="11.00" fill="blue">OR </text>
<text xml:space="preserve" text-anchor="start" x="507.16" y="-134.47" font-family="Helvetica,sans-Serif" font-size="11.00">required</text>
</g>
<!-- SHORT&#45;&gt;LONG -->
<g id="edge14" class="edge">
<title>SHORT&#45;&gt;LONG</title>
<path fill="none" stroke="black" d="M437.5,-103.03C437.5,-94.68 437.5,-84.6 437.5,-75.23"/>
<polygon fill="black" stroke="black" points="441,-75.44 437.5,-65.44 434,-75.44 441,-75.44"/>
<text xml:space="preserve" text-anchor="start" x="394.63" y="-85.08" font-family="Helvetica,sans-Serif" font-size="11.00">LONG </text>
<text xml:space="preserve" text-anchor="start" x="428.38" y="-85.08" font-family="Helvetica,sans-Serif" font-size="11.00" fill="blue">AND</text>
<text xml:space="preserve" text-anchor="start" x="380.75" y="-74.08" font-family="Helvetica,sans-Serif" font-size="11.00">&#45;W </text>
<text xml:space="preserve" text-anchor="start" x="398" y="-74.08" font-family="Helvetica,sans-Serif" font-size="11.00" fill="blue">AND </text>
<text xml:space="preserve" text-anchor="start" x="425" y="-74.08" font-family="Helvetica,sans-Serif" font-size="11.00">GNU_W</text>
</g>
<!-- LONG&#45;&gt;NEXT -->
<g id="edge19" class="edge">
<title>LONG&#45;&gt;NEXT</title>
<path fill="none" stroke="black" stroke-dasharray="5,2" d="M409.52,-51.52C394.3,-54.86 374.93,-59.03 357.63,-62.53 309.42,-72.26 285.74,-50.47 248.88,-83.03 216.45,-111.67 206.88,-163.36 204.16,-195.98"/>
<polygon fill="black" stroke="black" points="200.69,-195.34 203.53,-205.55 207.67,-195.8 200.69,-195.34"/>
<text xml:space="preserve" text-anchor="middle" x="303.25" y="-86.08" font-family="Helvetica,sans-Serif" font-size="11.00">no argument</text>
</g>
<!-- LONG&#45;&gt;ERR_INVALID_OPT -->
<g id="edge20" class="edge">
<title>LONG&#45;&gt;ERR_INVALID_OPT</title>
<path fill="none" stroke="black" d="M467.04,-46.86C516.51,-49.34 621.31,-55.36 709.38,-65.53 790.3,-74.87 882.63,-90.04 944.28,-100.83"/>
<polygon fill="black" stroke="black" points="943.48,-104.24 953.93,-102.53 944.69,-97.35 943.48,-104.24"/>
<text xml:space="preserve" text-anchor="middle" x="781.75" y="-85.88" font-family="Helvetica,sans-Serif" font-size="11.00">undefined</text>
</g>
<!-- LONG&#45;&gt;ERR_AMBIGUOUS -->
<g id="edge21" class="edge">
<title>LONG&#45;&gt;ERR_AMBIGUOUS</title>
<path fill="none" stroke="black" d="M465.43,-40.15C516.34,-30.31 630.29,-9.71 727.38,-2.53 775.58,1.04 787.88,0.44 836.13,-2.53 871.32,-4.69 910.2,-9.24 942.63,-13.64"/>
<polygon fill="black" stroke="black" points="941.93,-17.08 952.32,-14.98 942.89,-10.15 941.93,-17.08"/>
<text xml:space="preserve" text-anchor="middle" x="781.75" y="-19.08" font-family="Helvetica,sans-Serif" font-size="11.00">same prefix</text>
<text xml:space="preserve" text-anchor="middle" x="781.75" y="-5.58" font-family="Helvetica,sans-Serif" font-size="11.00">for &gt;1 option</text>
</g>
<!-- LONG&#45;&gt;ARG -->
<g id="edge18" class="edge">
<title>LONG&#45;&gt;ARG</title>
<path fill="none" stroke="black" d="M465.21,-51.42C531.45,-66.12 698.76,-103.64 709.38,-110.03 719.76,-116.28 718.72,-122.04 727.38,-130.53 735.86,-138.84 745.66,-147.38 754.54,-154.75"/>
<polygon fill="black" stroke="black" points="752.23,-157.39 762.18,-161 756.66,-151.97 752.23,-157.39"/>
<text xml:space="preserve" text-anchor="middle" x="613.38" y="-113.08" font-family="Helvetica,sans-Serif" font-size="11.00"> &#160;&#160;</text>
<text xml:space="preserve" text-anchor="start" x="507.35" y="-87.49" font-family="Helvetica,sans-Serif" font-size="11.00">optional</text>
<text xml:space="preserve" text-anchor="start" x="496.48" y="-76.49" font-family="Helvetica,sans-Serif" font-size="11.00" fill="blue">OR </text>
<text xml:space="preserve" text-anchor="start" x="515.98" y="-76.49" font-family="Helvetica,sans-Serif" font-size="11.00">required</text>
</g>
</g>
</svg>
